<svg width="128" height="128" viewBox="0 0 128 128" fill="none" xmlns="http://www.w3.org/2000/svg">
    <path d="M116.194 116.114H115.107L115.102 116.108C115.466 116.11 115.83 116.112 116.193 116.114C112.652 115.563 109.634 113.108 107.598 110.158C105.561 107.209 104.363 103.776 103.189 100.39C93.881 73.5504 84.5732 46.7107 75.2653 19.8709C74.2908 17.0601 73.2132 15.2031 70.2341 14.3442C63.8754 12.5099 56.7868 11.6026 50.1598 11.554C44.5257 11.5138 38.4849 12.3912 33.9316 15.9742C32.6558 16.9786 31.5368 18.1718 30.6108 19.5045C26.9205 24.8165 27.4924 32.2663 30.648 37.9117C33.8047 43.5582 39.1259 47.6707 44.6723 50.9987C50.231 54.3349 56.1159 57.089 61.4454 60.8051C61.5745 60.9022 59.4718 64.8516 59.2498 65.314C59.0103 65.8157 58.8462 66.3597 58.5272 66.8201C56.5887 65.7775 54.3631 65.1995 52.2047 64.8175C49.9378 64.417 47.6183 64.3251 45.3267 64.5481C44.3347 64.6441 43.3489 64.7989 42.3745 65.0095C39.0537 65.729 35.863 67.0689 33.0325 68.9486C30.8679 70.3855 28.9603 72.1971 27.3768 74.2555C24.0044 78.6364 21.7747 84.2653 22.1732 89.857C23.0351 101.938 35.8878 108.512 46.2619 110.601C59.2219 113.211 74.1443 109.446 80.9345 97.2026C83.8268 91.9866 84.7641 85.568 83.1848 79.7904C81.4103 73.3006 77.1905 67.6387 72.2108 63.2237C71.6421 62.72 64.5412 57.4503 64.5205 57.4957C68.2253 49.4235 71.9311 41.3512 75.6359 33.2779C84.6361 57.9282 93.3598 82.6797 101.806 107.526C102.389 109.243 102.966 111.157 102.236 112.815C101.228 115.108 98.3497 115.717 95.8289 115.98L95.5636 116.007C95.5636 116.007 95.5636 116.114 95.5616 116.114V116.469H116.193V116.114H116.194ZM59.1734 69.1024C65.6137 72.8371 71.0207 81.5442 66.8947 88.7577C63.8712 94.0428 59.3262 94.2802 52.5752 94.0758C50.7017 94.0191 48.5112 92.865 49.2844 90.7004M78.0245 76.4397C81.8955 84.4005 81.9956 94.0232 75.8743 101.229C74.9236 102.348 73.4114 103.472 72.2418 104.36C61.9265 112.192 47.1796 110.562 36.2191 104.908C30.1794 101.793 24.9778 96.6389 24.1799 89.6041C22.8256 77.6671 34.2733 66.8253 45.4496 66.0862C53.7675 65.536 57.9471 68.4325 57.9027 68.5512C57.8212 68.7711 57.688 69.0488 57.5889 69.2758C55.0702 75.0668 52.3389 81.0075 49.6405 86.721C48.5577 89.0147 47.8496 90.8284 45.7324 92.4129C42.7688 94.6302 37.7355 94.7272 37.7355 94.7272V95.3486L46.2661 95.3146C48.6568 95.3166 51.0547 95.2877 53.4392 95.2733C55.9714 95.2578 58.4013 95.3848 60.8798 94.7107C63.8619 93.9004 66.6841 92.1094 68.3956 89.4957C73.6488 81.472 66.6645 71.6387 59.5977 67.5045C59.5977 67.5045 62.7678 61.2697 62.7688 61.2686C62.9763 61.0281 70.2299 66.6457 70.9143 67.2268C73.8769 69.7414 76.3172 72.928 78.0235 76.4387L78.0245 76.4397ZM63.1982 56.8165C56.3884 52.6544 49.0687 49.1644 42.5716 44.5161C37.2132 40.6833 31.9641 35.8183 30.8669 28.9693C30.2475 25.1035 31.2054 20.9476 34.1092 18.2121C36.9365 15.5499 40.5742 13.7631 44.4029 13.1282C48.1985 12.4986 52.1727 12.6895 55.9796 13.1489C59.161 13.5329 62.3053 14.2162 65.3587 15.1886C67.9146 16.0031 70.4509 17.0942 71.6287 19.6903C73.208 23.1731 74.0276 27.0709 75.0898 30.7386L63.1982 56.8144V56.8165Z" fill="black"/>
    <style>
        path { fill: #000; }
        @media (prefers-color-scheme: dark) {
            path { fill: #FFF; }
        }
    </style>
</svg>